<?xml version="1.0" encoding="UTF-8" standalone="no"?>
<!-- Created with Inkscape (http://www.inkscape.org/) -->

<svg
   xmlns:dc="http://purl.org/dc/elements/1.1/"
   xmlns:cc="http://creativecommons.org/ns#"
   xmlns:rdf="http://www.w3.org/1999/02/22-rdf-syntax-ns#"
   xmlns:svg="http://www.w3.org/2000/svg"
   xmlns="http://www.w3.org/2000/svg"
   xmlns:sodipodi="http://sodipodi.sourceforge.net/DTD/sodipodi-0.dtd"
   xmlns:inkscape="http://www.inkscape.org/namespaces/inkscape"
   width="324.34528"
   height="1028.2958"
   id="svg2"
   version="1.1"
   inkscape:version="0.48.4 r9939"
   sodipodi:docname="Nyt dokument 1">
  <title
     id="title3017">Erotic Model</title>
  <defs
     id="defs4" />
  <sodipodi:namedview
     id="base"
     pagecolor="#ffffff"
     bordercolor="#666666"
     borderopacity="1.0"
     inkscape:pageopacity="0.0"
     inkscape:pageshadow="2"
     inkscape:zoom="0.35"
     inkscape:cx="290.54498"
     inkscape:cy="478.89238"
     inkscape:document-units="px"
     inkscape:current-layer="layer1"
     showgrid="false"
     fit-margin-top="0"
     fit-margin-left="0"
     fit-margin-right="0"
     fit-margin-bottom="0"
     inkscape:window-width="1366"
     inkscape:window-height="744"
     inkscape:window-x="0"
     inkscape:window-y="24"
     inkscape:window-maximized="1" />
  <metadata
     id="metadata7">
    <rdf:RDF>
      <cc:Work
         rdf:about="">
        <dc:format>image/svg+xml</dc:format>
        <dc:type
           rdf:resource="http://purl.org/dc/dcmitype/StillImage" />
        <dc:title>Erotic Model</dc:title>
        <dc:date>2017</dc:date>
        <dc:creator>
          <cc:Agent>
            <dc:title>Modelmaker</dc:title>
          </cc:Agent>
        </dc:creator>
        <dc:rights>
          <cc:Agent>
            <dc:title>public domain</dc:title>
          </cc:Agent>
        </dc:rights>
        <cc:license
           rdf:resource="http://creativecommons.org/licenses/publicdomain/" />
      </cc:Work>
      <cc:License
         rdf:about="http://creativecommons.org/licenses/publicdomain/">
        <cc:permits
           rdf:resource="http://creativecommons.org/ns#Reproduction" />
        <cc:permits
           rdf:resource="http://creativecommons.org/ns#Distribution" />
        <cc:permits
           rdf:resource="http://creativecommons.org/ns#DerivativeWorks" />
      </cc:License>
    </rdf:RDF>
  </metadata>
  <g
     inkscape:label="Layer 1"
     inkscape:groupmode="layer"
     id="layer1"
     transform="translate(-47.78927,-9.8449709)">
    <path
       style="fill:#000000"
       d="m 252.77577,1035.009 c -9.63822,-1.4742 -18.75548,-3.9183 -20.26056,-5.4313 -1.50507,-1.513 -3.829,-14.6452 -5.16427,-29.1828 -1.33523,-14.53759 -3.72966,-35.1868 -5.32091,-45.88718 -2.30123,-15.47464 -2.24843,-22.66672 0.25801,-35.15113 2.10223,-10.47106 2.39063,-17.75692 0.86641,-21.88714 -14.44808,-39.15058 -18.26673,-50.73389 -23.6524,-71.74585 -3.44336,-13.43421 -6.83341,-26.88815 -7.53338,-29.89763 -0.7,-3.00948 -2.1177,-5.47178 -3.15049,-5.47178 -3.10811,0 -5.07516,-15.60341 -6.2297,-49.4165 -1.28519,-37.63972 -4.92322,-74.11219 -8.27076,-82.9169 -1.30545,-3.43358 -1.73998,-7.89391 -0.96564,-9.91185 0.78234,-2.03874 0.0858,-3.66897 -1.56768,-3.66897 -1.86262,0 -2.54087,-2.27403 -1.81337,-6.07976 0.63922,-3.34386 0.14591,-6.07976 -1.09633,-6.07976 -1.24219,0 -1.56388,-2.18871 -0.71483,-4.8638 0.84905,-2.6751 0.558,-4.86381 -0.64676,-4.86381 -1.20474,0 -2.25851,-1.36795 -2.34166,-3.03988 -0.31449,-6.32275 -9.25011,-37.12165 -10.99503,-37.89715 -1.00316,-0.44587 -1.82393,-4.0671 -1.82393,-8.04722 0,-4.20513 -1.01875,-6.60695 -2.4319,-5.73359 -1.33755,0.82666 -2.4319,-0.75028 -2.4319,-3.50432 0,-2.75403 -0.21157,-5.8281 -0.47009,-6.83126 -0.25856,-1.00317 2.75092,-2.51522 6.68773,-3.36014 3.9368,-0.84489 5.95316,-1.66566 4.48081,-1.82393 -1.94545,-0.20914 -1.949,-2.61374 -0.0121,-8.79938 3.36018,-10.73564 10.74281,-11.42523 16.37165,-1.5292 3.80197,6.68418 16.50528,14.90467 23.03256,14.90467 1.72499,0 4.84953,-2.44596 6.94347,-5.43545 3.26131,-4.65617 4.49664,-5.00483 8.61655,-2.43191 2.64518,1.65195 6.73942,2.92948 9.09826,2.83896 3.57709,-0.1374 3.42682,-0.58198 -0.90552,-2.67974 -7.6718,-3.71473 -10.61304,-12.386 -10.61304,-31.28894 0,-12.28804 -1.11055,-18.17814 -4.08166,-21.64813 -2.24492,-2.62186 -4.98854,-4.20656 -6.09693,-3.52152 -1.10841,0.68503 -2.71274,-0.572 -3.56517,-2.7934 -0.85243,-2.2214 -6.31648,-6.08212 -12.14233,-8.57939 -5.82586,-2.49726 -10.59247,-6.10223 -10.59247,-8.01108 0,-1.90888 -2.60608,-4.12473 -5.79126,-4.92417 -3.85298,-0.96705 -6.22292,-3.70058 -7.08097,-8.16733 -0.70934,-3.6926 -1.11275,-6.85145 -0.89648,-7.01967 0.2162,-0.16828 2.5993,-0.98141 5.29559,-1.80709 3.58904,-1.09903 5.54355,-0.0399 7.29572,3.95374 1.31634,3.00021 3.36536,5.08788 4.55337,4.63924 1.18799,-0.44864 2.82953,0.22471 3.64786,1.49615 0.8183,1.2715 3.95014,3.08025 6.95962,4.01946 7.80473,2.43565 7.26169,-4.99745 -0.9947,-13.61524 -3.55656,-3.71225 -6.75342,-9.79111 -7.1041,-13.50854 -0.35068,-3.71745 -1.29241,-9.76847 -2.09275,-13.44672 -1.08791,-5.00005 -0.52254,-6.68773 2.24029,-6.68773 2.03249,0 3.69543,-1.01404 3.69543,-2.25344 0,-1.23936 5.88141,-5.61842 13.06983,-9.73121 12.768,-7.30512 13.27958,-7.39016 22.15233,-3.6829 4.99534,2.08719 9.61815,5.84336 10.27289,8.34705 0.65472,2.50367 2.7241,5.14068 4.59861,5.85999 1.87452,0.71931 3.40822,2.98372 3.40822,5.03205 0,2.04829 1.47193,3.72416 3.27094,3.72416 1.79902,0 5.22671,2.16111 7.6171,4.80245 2.39037,2.64135 9.39972,7.29236 15.57629,10.3356 13.43103,6.6175 37.98046,6.81991 47.78767,0.39399 3.30045,-2.16255 6.00082,-3.04971 6.00082,-1.97145 0,1.07826 1.60673,-0.16391 3.57052,-2.76019 3.448,-4.55867 3.57397,-4.51205 3.67161,1.35912 0.0557,3.34387 2.85316,11.99179 6.2168,19.21759 5.98202,12.85066 6.02745,13.36895 2.07775,23.71106 -2.22086,5.81529 -4.941,10.57323 -6.04472,10.57323 -1.10374,0 -3.96453,1.96532 -6.35734,4.36736 -11.07763,11.12039 -29.78291,24.81549 -33.8939,24.81549 -2.50211,0 -5.91619,2.18871 -7.58681,4.86381 -1.67061,2.67509 -5.32446,4.8638 -8.11964,4.8638 -2.80637,0 -8.7066,4.07308 -13.17608,9.09576 -7.76499,8.72611 -9.58972,13.91798 -2.95693,8.41322 1.83466,-1.52262 4.5741,-1.77787 6.47458,-0.60331 3.83356,2.36926 4.08674,11.60198 0.72532,26.44902 -1.7777,7.85189 -1.63353,10.81149 0.56778,11.65621 3.12573,1.19944 4.2041,15.5143 1.16875,15.5143 -1.68969,0 -3.00914,7.44328 -6.25087,35.26261 -0.77933,6.68774 -2.51405,12.84704 -3.85498,13.68734 -2.61539,1.63898 -7.11269,19.26459 -7.2115,28.263 -0.0331,3.00948 -1.03867,5.47178 -2.23472,5.47178 -3.17641,0 -2.66376,3.27962 1.35286,8.65483 3.44516,4.61043 3.62953,4.57869 7.8963,-1.35912 7.70247,-10.719 11.93948,-20.33005 15.27742,-34.65463 1.79216,-7.69089 4.24262,-13.98344 5.44546,-13.98344 1.20287,0 1.51067,-1.09436 0.68403,-2.43191 -0.82665,-1.33754 -0.42892,-2.4319 0.88382,-2.4319 1.31277,0 3.70442,-4.10383 5.31481,-9.11964 1.61035,-5.01579 4.35495,-10.76316 6.09906,-12.77194 1.74414,-2.00877 4.31459,-6.65979 5.71213,-10.33559 1.82334,-4.79579 4.23448,-6.68329 8.53739,-6.68329 3.29805,0 6.6927,1.12658 7.54367,2.50347 1.59006,2.57274 -6.48129,30.09411 -12.06834,41.15025 -1.72328,3.41016 -3.90411,10.45259 -4.84628,15.64984 -0.94219,5.19724 -3.82434,13.3887 -6.40478,18.20326 -2.58045,4.81456 -4.69172,10.62048 -4.69172,12.90204 0,2.28159 -1.03114,4.78561 -2.2914,5.5645 -6.66701,4.12044 -4.63583,30.31768 4.34351,56.02062 5.58734,15.99351 7.64449,36.4109 8.94344,88.76452 1.73558,69.95142 3.47461,86.4674 10.3274,98.082 2.98538,5.05987 5.42798,10.69477 5.42798,12.52197 0,1.82728 2.74416,6.58354 6.09813,10.56954 10.63838,12.64298 14.79222,51.04109 6.61406,61.14059 -2.6362,3.2556 -9.72231,6.5819 -18.23927,8.5617 l -13.92814,3.2377 0,-5.7779 c 0,-7.4392 -7.45814,-23.1529 -10.1882,-21.4656 -1.15002,0.7107 -1.37684,6.6756 -0.50404,13.2551 1.47614,11.1277 -1.35525,20.0304 -6.02087,18.9315 -0.8394,-0.1977 -9.41198,-1.5656 -19.05022,-3.0399 z m 17.8409,-11.8001 c -0.80651,-3.0094 -1.48134,-6.2925 -1.49961,-7.2956 -0.064,-3.5095 -9.04006,-1.7855 -12.66184,2.4318 -8.00897,9.3259 -7.59307,10.3356 4.25709,10.3356 10.6051,0 11.272,-0.3684 9.90436,-5.4718 z m 40.65504,-3.2312 c 4.33158,-2.9221 4.31605,-3.126 -0.43181,-5.667 -5.72997,-3.0666 -11.59507,-1.4142 -13.60901,3.834 -3.1401,8.183 3.36802,9.0326 14.04082,1.833 z m -40.57723,-62.43015 c -0.67465,-1.67193 -1.22664,-0.30394 -1.22664,3.03992 0,3.34385 0.55199,4.71176 1.22664,3.03983 0.67463,-1.67193 0.67463,-4.40782 0,-6.07975 z m -4.50295,-60.18962 c -1.08122,-3.34386 -4.7325,-15.25811 -8.11397,-26.47606 -7.48917,-24.84508 -11.63362,-32.62087 -9.86791,-18.51414 0.66967,5.35019 1.9123,16.84097 2.7614,25.53502 0.8491,8.69405 4.45109,24.01506 8.00439,34.04663 l 6.46057,18.23925 1.36068,-13.37543 c 0.74837,-7.35652 0.47604,-16.11141 -0.60516,-19.45527 z M 214.82647,696.11792 c -0.61169,-2.3407 -1.11218,-0.42557 -1.11218,4.25584 0,4.68141 0.50049,6.59654 1.11218,4.25583 0.61168,-2.34071 0.61168,-6.17096 0,-8.51167 z m 5.69775,-12.76749 c 2.44307,-1.66792 9.64919,-23.41829 9.64919,-29.12431 0,-2.54941 1.09436,-5.31164 2.43191,-6.13829 1.33754,-0.82665 2.4319,-3.33399 2.4319,-5.57186 0,-2.40399 -2.66099,-0.10627 -6.50328,5.61531 -3.57679,5.32629 -7.40164,10.29258 -8.49962,11.03621 -1.09801,0.74362 -2.55865,8.40412 -3.24591,17.02332 -0.68728,8.6192 -0.5286,14.02975 0.35261,12.02343 0.88119,-2.00632 2.40364,-4.19504 3.3832,-4.86381 z m 44.00035,-260.02548 c -4.36707,-2.69901 -2.46503,-10.88326 2.76329,-11.89014 2.77677,-0.53476 4.21512,0.70771 4.19068,3.61994 -0.0562,6.69872 -3.28453,10.53801 -6.95397,8.2702 z M 216.51504,313.27843 c -9.99513,-1.82894 -14.83012,-4.57818 -24.58183,-13.97758 -13.14349,-12.66864 -17.80747,-23.01296 -11.47206,-25.44406 2.77029,-1.06308 3.49904,-4.00058 2.77893,-11.20172 -0.627,-6.26978 0.1982,-10.73541 2.30744,-12.48585 6.69332,-5.55498 1.96454,-16.75054 -9.07419,-21.48336 -3.23485,-1.38694 -7.5231,-3.59151 -9.52941,-4.89907 -2.00632,-1.30756 -8.84605,-4.71376 -15.1994,-7.56932 -10.96995,-4.93059 -15.10854,-9.54796 -8.51167,-9.4964 1.67194,0.0121 8.78526,2.69862 15.80738,5.96787 10.06519,4.68603 12.7675,5.19574 12.7675,2.40817 0,-5.60481 2.87808,-4.28243 16.37327,7.52283 11.19744,9.79524 12.47778,11.87921 11.20578,18.23927 -1.05732,5.28667 -0.51477,7.18047 2.05719,7.18047 1.9213,0 5.61476,1.9605 8.20768,4.35665 2.59292,2.39616 9.83055,7.86407 16.08361,12.15091 6.25308,4.28684 12.81922,9.16609 14.59142,10.84274 1.77223,1.67668 5.41091,3.42084 8.08601,3.87595 2.67509,0.4551 6.77893,2.53986 9.11964,4.63275 2.51281,2.24678 4.25583,2.68615 4.25583,1.07278 0,-1.50287 1.64154,-2.10257 3.64785,-1.33268 4.03658,1.54898 5.07495,10.60706 1.21596,10.60706 -1.33755,0 -2.4663,1.91513 -2.50831,4.25584 -0.0982,5.46708 -8.55014,11.55945 -20.7263,14.93996 -10.69901,2.97042 -9.74544,2.97621 -26.90232,-0.16318 z m 96.85146,-16.56284 c -10.18792,-2.41379 -26.00996,-15.61219 -23.52864,-19.62706 0.47711,-0.77197 -0.66627,-5.70863 -2.54081,-10.97037 -5.27832,-14.81596 -4.41529,-37.53371 1.42591,-37.53371 1.15247,0 1.46918,1.63188 0.70381,3.6264 -1.51085,3.9372 6.20366,28.21312 9.78231,30.78279 1.20904,0.86817 1.59289,3.15611 0.85296,5.08434 -0.73992,1.92821 -0.40836,5.02188 0.73679,6.8748 1.70081,2.75196 3.42303,2.37755 9.40416,-2.04448 4.02711,-2.97735 8.37664,-5.4134 9.66562,-5.4134 1.289,0 7.43988,-7.66584 13.66861,-17.03521 12.27491,-18.46411 13.18912,-18.68179 24.00919,-5.7168 4.92342,5.89939 6.3817,10.29267 6.3817,19.22568 0,15.37666 -7.94378,25.95172 -23.46792,31.24133 -12.40779,4.22774 -14.99725,4.37166 -27.09369,1.50569 z m 41.7331,-29.82866 c 0.80651,-3.00948 1.48134,-7.59608 1.4996,-10.19242 0.0329,-4.67293 -0.002,-4.67293 -3.53731,0 -3.92585,5.19043 -4.98025,15.6642 -1.57693,15.6642 1.18155,0 2.80815,-2.4623 3.61464,-5.47178 z M 165.82527,240.9014 c -0.77313,-1.25096 -7.67745,-4.61762 -15.34294,-7.48148 -23.0763,-8.62141 -52.115579,-23.55549 -64.799709,-33.32464 -11.32387,-8.72152 -37.911848,-43.85951 -37.893341,-50.07889 0.0049,-1.5954 4.076138,2.02388 9.047533,8.04284 4.971419,6.01897 17.279038,19.16081 27.350308,29.20409 15.34025,15.29764 22.849109,20.51252 46.278239,32.13996 19.50115,9.67805 30.16928,13.63911 35.24252,13.08542 7.0863,-0.77337 14.3867,4.68409 11.82044,8.83641 -1.61299,2.60988 -10.01624,2.30565 -11.70305,-0.42371 z m 164.53027,-44.445 c -4.36033,-8.97638 -8.98963,-16.97688 -10.28732,-17.7789 -1.52106,-0.94005 -1.50877,-3.04763 0.0345,-5.93133 1.77133,-3.30973 1.47705,-4.82497 -1.13149,-5.82598 -4.02733,-1.54543 -7.14165,2.09884 -4.89718,5.73047 0.82666,1.33755 0.34407,2.43191 -1.07242,2.43191 -1.41648,0 -2.57543,-1.21145 -2.57543,-2.69209 0,-1.48065 -1.68757,-2.04451 -3.75016,-1.25302 -4.79543,1.84017 -12.22803,-14.74982 -13.83863,-30.88857 -1.13726,-11.39584 -4.07623,-17.4867 -5.93997,-12.31022 -0.56715,1.57519 -4.75593,2.3169 -10.00267,1.77116 -13.44397,-1.39845 -16.32259,1.65558 -16.32259,17.31712 0,7.40532 -0.9019,13.46418 -2.00424,13.46418 -1.10233,0 -1.71833,5.38653 -1.36889,11.97006 0.8341,15.71545 -2.35812,19.08863 -19.94798,21.07867 -7.90537,0.89441 -14.3734,2.64375 -14.3734,3.88748 0,1.24372 -1.09243,1.58615 -2.42765,0.76094 -2.41967,-1.49543 -13.92724,5.11794 -12.77175,7.33992 0.33439,0.64302 -0.16999,1.2501 -1.12101,1.34907 -0.95092,0.099 -2.31887,-1.49817 -3.03988,-3.54921 -0.72099,-2.05105 -4.85287,-6.34178 -9.18192,-9.53491 -4.32908,-3.19317 -7.0667,-6.61009 -6.0836,-7.59319 0.98309,-0.98309 0.0528,-3.06592 -2.06732,-4.62849 -10.68923,-7.87818 -12.18499,-21.16019 -3.12611,-27.75912 5.82091,-4.24024 6.10068,-5.17419 3.15683,-10.53843 -1.77655,-3.23723 -3.48355,-7.41785 -3.79333,-9.29027 -0.3098,-1.87244 -2.00396,-4.35525 -3.76483,-5.51737 -7.83761,-5.17264 -53.44719,5.93454 -72.49437,17.65438 -9.684489,5.95894 -12.700879,6.7548 -17.985719,4.74551 -7.43311,-2.82606 -8.79089,-8.50091 -1.47867,-6.1801 3.09377,0.98193 11.30157,-1.5169 22.495099,-6.84853 20.33429,-9.68547 26.9606,-11.96564 37.07926,-12.75923 25.7374,-2.01855 35.23493,-7.67438 33.43868,-19.91299 -0.78006,-5.314846 0.35999,-8.871646 4.01515,-12.526796 2.80746,-2.80746 5.10449,-7.29321 5.10449,-9.9683 0,-3.53543 1.62128,-4.8638 5.93622,-4.8638 3.26493,0 6.71709,-1.26345 7.67147,-2.80766 1.0751,-1.739547 0.66712,-2.147525 -1.07242,-1.072427 -4.03788,2.495547 -3.46763,-2.272367 0.68388,-5.717793 1.92035,-1.593748 4.18433,-6.051963 5.03107,-9.907138 2.51967,-11.472043 19.67648,-35.70876 30.21414,-42.682244 8.63812,-5.7164317 11.6182,-6.3664557 24.8124,-5.412055 11.88996,0.860042 15.92631,2.23453 19.49158,6.637467 2.81036,3.470643 5.96634,4.988735 8.41653,4.048512 2.26992,-0.871035 9.69437,1.833777 17.637,6.425356 13.61491,7.870711 31.31729,10.908791 34.70707,5.956414 0.91362,-1.33475 5.18808,-1.036891 10.5595,0.735821 6.19039,2.043018 9.81098,2.191874 11.52886,0.474002 3.88022,-3.880224 9.4822,-0.699512 7.12669,4.046396 -1.09538,2.207002 -3.35449,10.578878 -5.02023,18.604161 -1.66573,8.025286 -5.67407,23.129178 -8.9074,33.564208 -4.46785,14.419196 -5.89737,24.633476 -5.95616,42.558316 -0.0661,20.1357 -0.54989,22.96303 -3.30799,19.32969 -5.32878,-7.01983 -9.72358,-4.8989 -15.37498,7.41996 -5.84099,12.73216 -5.4773,18.39869 2.10032,32.72599 2.6585,5.02655 4.4604,11.59269 4.00422,14.59141 -0.64095,4.21333 -2.6309,1.74366 -8.75729,-10.86841 z m 15.34096,-69.57748 c 0.75841,-4.92035 3.58805,-17.15377 6.28815,-27.185376 9.44172,-35.078938 10.3211,-38.911572 9.18788,-40.044766 -2.35966,-2.359676 -28.78028,-4.285598 -37.17831,-2.710113 -7.44623,1.396934 -8.55727,2.432705 -7.50629,6.99785 0.67847,2.947033 1.67377,14.475759 2.21183,25.619419 0.77505,16.052536 1.99618,21.356666 5.87879,25.534986 3.96132,4.26306 4.6505,7.44285 3.59588,16.59121 -1.11373,9.66129 -0.63946,11.4752 3.24107,12.3958 6.15635,1.46047 12.6013,-6.30133 14.281,-17.19901 z m -44.06824,-15.63383 c 5.29567,-8.34177 7.01101,-33.195796 2.89529,-41.950337 -1.88644,-4.012638 -3.51878,-5.849457 -3.62742,-4.08178 -0.22081,3.593673 -12.50812,3.146081 -15.17191,-0.552701 -5.04567,-7.006069 8.0917,-12.092808 14.72406,-5.701109 2.5516,2.458995 2.97514,2.110479 2.2165,-1.823927 -0.76358,-3.96021 -2.63435,-4.762081 -10.06982,-4.316241 -5.4383,0.32607 -8.53919,-0.411672 -7.66639,-1.823927 0.80614,-1.304327 4.71225,-2.371496 8.68032,-2.371496 l 7.21463,0 -3.76091,-7.272802 c -7.93239,-15.339572 -30.15495,-21.483096 -41.2277,-11.397579 -6.72935,6.129371 -10.86475,16.917222 -5.75732,15.018927 4.95063,-1.840052 17.33831,2.291972 18.63532,6.215946 0.97405,2.946859 0.5338,2.996883 -2.72255,0.309459 -2.13646,-1.763202 -7.47406,-2.857559 -11.86133,-2.431903 -6.54669,0.63514 -9.25902,2.853036 -15.12796,12.370218 -7.05954,11.447843 -7.10879,11.772702 -3.84552,25.375506 1.81808,7.57854 5.28553,15.492486 7.7055,17.586526 6.56448,5.68039 28.17139,11.81029 42.58211,12.08058 10.67704,0.20014 13.26738,-0.63731 16.1851,-5.23336 z M 286.17308,94.553434 c -3.30766,-1.31997 -10.42097,-1.73317 -15.80738,-0.91822 -7.17954,1.08624 -8.81986,0.80424 -6.14564,-1.05654 5.78565,-4.02577 25.97862,-3.26928 27.6304,1.03511 0.76989,2.00633 1.16055,3.5785 0.86816,3.4937 -0.29242,-0.0849 -3.23791,-1.23412 -6.54554,-2.55405 z m -4.92969,-15.53106 c 0,-2.00633 1.09435,-3.64786 2.43191,-3.64786 1.33754,0 2.4319,1.64153 2.4319,3.64786 0,2.00631 -1.09436,3.64785 -2.4319,3.64785 -1.33756,0 -2.43191,-1.64154 -2.43191,-3.64785 z m -9.72762,-1.21595 c 4.71488,-3.04699 7.29572,-3.04699 7.29572,0 0,1.33754 -2.4623,2.41514 -5.47179,2.39467 -4.4247,-0.0301 -4.77373,-0.48838 -1.82393,-2.39467 z M 241.03449,63.07993 c -1.47884,-2.389981 15.17226,-10.087394 19.86581,-9.18348 2.57395,0.495695 4.53571,2.92113 4.53571,5.6078 0,4.026475 -1.76164,4.74868 -11.78279,4.830493 -6.48051,0.05275 -12.15896,-0.511748 -12.61873,-1.254813 z m 28.24138,-3.715442 c 0.11673,-2.833045 0.69295,-3.409285 1.46926,-1.469283 0.70251,1.755519 0.61612,3.853036 -0.19188,4.661157 -0.80812,0.808094 -1.38288,-0.628258 -1.27728,-3.191874 z"
       id="path2996"
       inkscape:connector-curvature="0" />
  </g>
</svg>
